<svg xmlns="http://www.w3.org/2000/svg" viewBox="0 0 450 500"> <defs> <g id="x"> <path stroke="black" fill="none" d="m -3 -3 l 0 -9 m 0 9 l -9 0 m 0 6 l 9 0 m 0 0 l 0 9 m 6 0 l 0 -9 m 0 0 l 9 0 m 0 -6 l -9 0 m 0 0 l 0 -9 z " /> </g> <g id="xl"> <path stroke="black" fill="none" d="m -3 -3 l 0 -9 m 0 9 l -9 0 m 0 6 l 9 0 m 0 0 l 0 9 z" /> </g> <g id="xr"> <path stroke="black" fill="none" d="m 3 -3 l 0 -9 m 0 9 l 9 0 m 0 6 l -9 0 m 0 0 l 0 9 z" /> </g> <g id="r"> <circle r="23" fill="gray" /> <circle r="20" fill="black" /> <text x="-16" y="12" fill="white" font-size="32" font-family="楷体">車</text> </g> <g id="n"> <circle r="23" fill="gray" /> <circle r="20" fill="black" /> <text x="-16" y="12" fill="white" font-size="32" font-family="楷体">馬</text> </g> <g id="b"> <circle r="23" fill="gray" /> <circle r="20" fill="black" /> <text x="-16" y="12" fill="white" font-size="32" font-family="楷体">象</text> </g> <g id="a"> <circle r="23" fill="gray" /> <circle r="20" fill="black" /> <text x="-16" y="12" fill="white" font-size="32" font-family="楷体">士</text> </g> <g id="k"> <circle r="23" fill="gray" /> <circle r="20" fill="black" /> <text x="-16" y="12" fill="white" font-size="32" font-family="楷体">將</text> </g> <g id="c"> <circle r="23" fill="gray" /> <circle r="20" fill="black" /> <text x="-16" y="12" fill="white" font-size="32" font-family="楷体">炮</text> </g> <g id="p"> <circle r="23" fill="gray" /> <circle r="20" fill="black" /> <text x="-16" y="12" fill="white" font-size="32" font-family="楷体">卒</text> </g> <g id="R"> <circle r="23" fill="#BB2222" /> <circle r="20" fill="#82111F" /> <text x="-16" y="12" fill="white" font-size="32" font-family="楷体">車</text> </g> <g id="N"> <circle r="23" fill="#BB2222" /> <circle r="20" fill="#82111F" /> <text x="-16" y="12" fill="white" font-size="32" font-family="楷体">馬</text> </g> <g id="B"> <circle r="23" fill="#BB2222" /> <circle r="20" fill="#82111F" /> <text x="-16" y="12" fill="white" font-size="32" font-family="楷体">相</text> </g> <g id="A"> <circle r="23" fill="#BB2222" /> <circle r="20" fill="#82111F" /> <text x="-16" y="12" fill="white" font-size="32" font-family="楷体">仕</text> </g> <g id="K"> <circle r="23" fill="#BB2222" /> <circle r="20" fill="#82111F" /> <text x="-16" y="12" fill="white" font-size="32" font-family="楷体">帥</text> </g> <g id="C"> <circle r="23" fill="#BB2222" /> <circle r="20" fill="#82111F" /> <text x="-16" y="12" fill="white" font-size="32" font-family="楷体">炮</text> </g> <g id="P"> <circle r="23" fill="#BB2222" /> <circle r="20" fill="#82111F" /> <text x="-16" y="12" fill="white" font-size="32" font-family="楷体">兵</text> </g> <g id="select"> <path stroke-linecap="round" stroke="blue" stroke-width="2" fill="none" d="m -23 -23 l 0 12" /> <path stroke-linecap="round" stroke="blue" stroke-width="2" fill="none" d="m -23 -23 l 12 0" /> <path stroke-linecap="round" stroke="blue" stroke-width="2" fill="none" d="m 23 -23 l -12 0" /> <path stroke-linecap="round" stroke="blue" stroke-width="2" fill="none" d="m 23 -23 l 0 12" /> <path stroke-linecap="round" stroke="blue" stroke-width="2" fill="none" d="m -23 23 l 12 0" /> <path stroke-linecap="round" stroke="blue" stroke-width="2" fill="none" d="m -23 23 l 0 -12" /> <path stroke-linecap="round" stroke="blue" stroke-width="2" fill="none" d="m 23 23 l -12 0" /> <path stroke-linecap="round" stroke="blue" stroke-width="2" fill="none" d="m 23 23 l 0 -12" /> </g> <g id="target"> <path stroke-linecap="round" stroke="green" stroke-width="2" fill="none" d="m -23 -23 l 0 12" /> <path stroke-linecap="round" stroke="green" stroke-width="2" fill="none" d="m -23 -23 l 12 0" /> <path stroke-linecap="round" stroke="green" stroke-width="2" fill="none" d="m 23 -23 l -12 0" /> <path stroke-linecap="round" stroke="green" stroke-width="2" fill="none" d="m 23 -23 l 0 12" /> <path stroke-linecap="round" stroke="green" stroke-width="2" fill="none" d="m -23 23 l 12 0" /> <path stroke-linecap="round" stroke="green" stroke-width="2" fill="none" d="m -23 23 l 0 -12" /> <path stroke-linecap="round" stroke="green" stroke-width="2" fill="none" d="m 23 23 l -12 0" /> <path stroke-linecap="round" stroke="green" stroke-width="2" fill="none" d="m 23 23 l 0 -12" /> <circle r="12" fill="green" /> </g> </defs> <g transform="translate(0,0)"> <path stroke="black" fill="none" stroke-linecap="round" d="m 25 25 l 400 0 m 0 0 l 0 450 m 0 0 l -400 0 m 0 0 l 0 -450 m 0 50 l 400 0 m 0 50 l -400 0 m 0 50 l 400 0 m 0 50 l -400 0 m 0 50 l 400 0 m 0 50 l -400 0 m 0 50 l 400 0 m 0 50 l -400 0 m 0 50 l 400 0 m -50 0 l 0 -200 m -50 0 l 0 200 m -50 0 l 0 -200 m -50 0 l 0 200 m -50 0 l 0 -200 m -50 0 l 0 200 m -50 0 l 0 -200 m 0 -50 l 0 -200 m 50 0 l 0 200 m 50 0 l 0 -200 m 50 0 l 0 200 m 50 0 l 0 -200 m 50 0 l 0 200 m 50 0 l 0 -200 m -100 0 l -100 100 m 0 -100 l 100 100 m 0 250 l -100 100 m 100 0 l -100 -100 z" /> <path stroke="black" fill="none" stroke-width="2" stroke-linecap="round" d="m 22 22 l 406 0" /> <path stroke="black" fill="none" stroke-width="2" stroke-linecap="round" d="m 22 22 l 0 456" /> <path stroke="black" fill="none" stroke-width="2" stroke-linecap="round" d="m 428 478 l 0 -456" /> <path stroke="black" fill="none" stroke-width="2" stroke-linecap="round" d="m 428 478 l -406 0" /> <use xlink:href="#x" transform="translate(75,125)" /> <use xlink:href="#x" transform="translate(375,125)" /> <use xlink:href="#x" transform="translate(75,375)" /> <use xlink:href="#x" transform="translate(375,375)" /> <use xlink:href="#x" transform="translate(125,175)" /> <use xlink:href="#x" transform="translate(225,175)" /> <use xlink:href="#x" transform="translate(325,175)" /> <use xlink:href="#x" transform="translate(125,325)" /> <use xlink:href="#x" transform="translate(225,325)" /> <use xlink:href="#x" transform="translate(325,325)" /> <use xlink:href="#xr" transform="translate(25,175)" /> <use xlink:href="#xr" transform="translate(25,325)" /> <use xlink:href="#xl" transform="translate(425,175)" /> <use xlink:href="#xl" transform="translate(425,325)" /> <text transform="translate(90,260)" fill="black" font-size="28" font-family="楷体">楚 河</text> <text transform="translate(290,260)" fill="black" font-size="28" font-family="楷体">汉 界</text> {{content}} </g> </svg>